# xmcd
#
# Track frame offsets:
#	150
#	12855
#	24020
#	38867
#	54132
#	65875
#	81712
#	99490
#	115085
#	128357
#	140985
#	151387
#	161912
#	176595
#	192887
#	208607
#	220000
#	240145
#	253780
#	266667
#	280457
#	289232
#
# Disc length: 4115
#
# Revision: 1
# Processed by: cddbd v1.5.1PL0 Copyright (c) Steve Scherf et al.
# Submitted via: VisiTrax 2.9.10.228 - For more info visit www.synapsa.com
# Normalized: r0:DSETVAR1
#
DISCID=3e101116
DTITLE=Various Artist - The Most Awesome Line Dancing Album 4
DYEAR=1999
DGENRE=Country
TTITLE0=Deana Carter - You Still Shake Me
TTITLE1=Chris Ledoux - Under This Old Hat
TTITLE2=Sam Millar - She Is Just Too Hot For Me
TTITLE3=Billy Dean - Saturday Night
TTITLE4=Wild Rose - Go Down sSwingin'
TTITLE5=Trace Adkins - There's A Girl In Texas
TTITLE6=Eddy Raven - Island
TTITLE7=Asleep At The Wheel feat. Huey Lewis - Hubbin' It
TTITLE8=Sharon B - Your Cheatin' Heart
TTITLE9=Suzy Bogguss - All Things Made New Again
TTITLE10=Noah Gordon - I Need A Break
TTITLE11=Pirates Of The Mississippi - Pop From The Top
TTITLE12=Lacy J. Dalton - Lightin' Strikes A Good Man
TTITLE13=Tanya Tucker - I Don't Believe That's How You Feel
TTITLE14=Paul Rutter - On The Tracks To Tennessee
TTITLE15=Linda Davis - Do I Do It To You Too
TTITLE16=Steve Wariner - Ywo Yeardrops
TTITLE17=Kix Brooks - She Does The Walk On By
TTITLE18=Barbara Mandrell - I Wish That I Could Fall In Love Today
TTITLE19=Larry Gatlin - Houston (Means I'm One Day Closer To You)
TTITLE20=Dude Mowrey - Honky Tonk Song
TTITLE21=Asleep At The Wheel feat. George Strait - Big  Balls In Town
EXTD=
EXTT0=
EXTT1=
EXTT2=
EXTT3=
EXTT4=
EXTT5=
EXTT6=
EXTT7=
EXTT8=
EXTT9=
EXTT10=
EXTT11=
EXTT12=
EXTT13=
EXTT14=
EXTT15=
EXTT16=
EXTT17=
EXTT18=
EXTT19=
EXTT20=
EXTT21=
PLAYORDER=
